<svg width="588" height="721" viewBox="0 0 588 721" fill="none" xmlns="http://www.w3.org/2000/svg">
<path d="M178.554 712.927L178.304 627.356C178.281 619.312 184.814 612.767 192.915 612.743L364.16 612.244C372.238 612.22 374.582 607.206 369.37 601.052L313.301 534.652C308.089 528.497 297.328 523.593 289.227 523.617L117.982 524.116C109.905 524.14 103.348 530.685 103.371 538.753L103.621 624.228C103.644 632.273 107.871 643.793 113.084 649.972L169.152 716.348C174.365 722.502 178.554 720.971 178.53 712.927M102.92 383.915C102.896 375.87 107.085 374.339 112.297 380.494L168.366 446.917C173.578 453.072 177.806 464.592 177.829 472.661L177.895 495.37L117.899 495.545C109.822 495.569 103.226 489.062 103.203 481.018L102.92 383.962L102.92 383.915Z" fill="#657962"/>
<path d="M194.616 158.78L194.866 244.351C194.889 252.395 188.356 258.94 180.255 258.964L9.00957 259.463C0.93221 259.487 -1.41206 264.501 3.80023 270.655L59.8689 337.055C65.0812 343.21 75.8416 348.114 83.9428 348.091L255.188 347.591C263.265 347.567 269.822 341.023 269.799 332.954L269.549 247.479C269.526 239.434 265.299 227.914 260.086 221.735L204.018 155.36C198.806 149.205 194.616 150.736 194.64 158.78M270.251 487.793C270.274 495.837 266.085 497.368 260.873 491.213L204.804 424.79C199.592 418.635 195.364 407.115 195.341 399.047L195.275 376.337L255.271 376.162C263.348 376.138 269.944 382.645 269.967 390.689L270.25 487.745L270.251 487.793Z" fill="#A8B6A5"/>
<path d="M393.775 561.589L393.526 476.018C393.502 467.974 400.036 461.429 408.137 461.406L579.382 460.906C587.459 460.882 589.803 455.868 584.591 449.714L528.522 383.314C523.31 377.159 512.55 372.255 504.449 372.279L333.204 372.778C325.126 372.802 318.569 379.347 318.593 387.415L318.842 472.89C318.865 480.935 323.093 492.455 328.305 498.634L384.374 565.01C389.586 571.164 393.775 569.633 393.751 561.589M318.141 232.577C318.117 224.532 322.306 223.001 327.519 229.156L383.587 295.579C388.8 301.734 393.027 313.254 393.051 321.323L393.117 344.032L333.12 344.207C325.043 344.231 318.448 337.724 318.424 329.68L318.141 232.624L318.141 232.577Z" fill="#89ADBE"/>
<path d="M409.837 7.44249L410.087 93.0129C410.111 101.057 403.577 107.602 395.476 107.626L224.231 108.125C216.154 108.149 213.809 113.163 219.022 119.318L275.09 185.717C280.303 191.872 291.063 196.776 299.164 196.753L470.409 196.253C478.487 196.23 485.044 189.685 485.02 181.616L484.771 96.141C484.747 88.0965 480.52 76.5759 475.308 70.3976L419.239 4.02164C414.027 -2.133 409.838 -0.602049 409.861 7.44242M485.472 336.455C485.495 344.499 481.306 346.03 476.094 339.875L420.025 273.452C414.813 267.297 410.586 255.777 410.562 247.709L410.496 224.999L470.493 224.824C478.57 224.8 485.165 231.307 485.189 239.352L485.472 336.407L485.472 336.455Z" fill="#345C6D"/>
</svg>
