<?xml version="1.0" encoding="UTF-8"?>
<svg id="Layer_1" data-name="Layer 1" xmlns="http://www.w3.org/2000/svg" viewBox="0 0 432.53 112.71">
  <defs>
    <style>
      .cls-1 {
        fill: #345c6d;
      }

      .cls-1, .cls-2 {
        stroke-width: 0px;
      }

      .cls-2 {
        fill: #fff;
      }
    </style>
  </defs>
  <polygon class="cls-2" points="181.55 22.99 181.55 16.83 228.67 16.83 228.67 22.99 208.79 22.99 208.79 75.93 201.43 75.93 201.43 22.99 181.55 22.99"/>
  <polygon class="cls-2" points="235.78 75.93 235.78 16.83 269.78 16.83 269.78 22.99 243.14 22.99 243.14 42.52 269.01 42.52 269.01 48.69 243.14 48.69 243.14 69.76 270.47 69.76 270.47 75.93 235.78 75.93"/>
  <polygon class="cls-2" points="275.82 22.99 275.82 16.83 322.93 16.83 322.93 22.99 303.06 22.99 303.06 75.93 295.69 75.93 295.69 22.99 275.82 22.99"/>
  <path class="cls-2" d="m349.23,22.99h-11.82v21.85h11.82c4.57,0,8.02-.94,10.36-2.83,2.34-1.88,3.51-4.6,3.51-8.14s-1.17-6.24-3.51-8.1c-2.34-1.85-5.8-2.78-10.36-2.78m-19.19,52.94V16.83h18.33c7.14,0,12.71,1.47,16.7,4.41,4,2.94,6,7.15,6,12.63,0,4.17-1.18,7.62-3.55,10.37-2.37,2.74-5.73,4.65-10.06,5.74l14.73,25.96h-8.48l-14.13-24.93h-12.16v24.93h-7.37Z"/>
  <path class="cls-2" d="m404.95,17.17l11.73,34.78h-23.47l11.74-34.78Zm-7.62-.34l-19.96,59.11h7.8l5.99-17.82h27.59l6,17.82h7.79l-19.96-59.11h-15.25Z"/>
  <path class="cls-2" d="m205.11,101.11h-2.23v4.13h2.23c.86,0,1.51-.18,1.96-.53.44-.36.66-.87.66-1.54s-.22-1.18-.66-1.53c-.44-.35-1.09-.53-1.96-.53m-3.62,10v-11.16h3.46c1.35,0,2.4.28,3.15.83.75.56,1.13,1.35,1.13,2.39,0,.79-.22,1.44-.67,1.96-.45.52-1.08.88-1.9,1.08l2.78,4.9h-1.6l-2.67-4.71h-2.3v4.71h-1.39Z"/>
  <polygon class="cls-2" points="214.67 99.94 214.67 111.1 221.23 111.1 221.23 109.94 216.06 109.94 216.06 105.96 220.95 105.96 220.95 104.79 216.06 104.79 216.06 101.11 221.1 101.11 221.1 99.94 214.67 99.94"/>
  <path class="cls-2" d="m230.92,100.01l2.22,6.57h-4.43l2.22-6.57Zm-1.44-.06l-3.77,11.16h1.47l1.13-3.36h5.21l1.13,3.36h1.47l-3.77-11.16h-2.88Z"/>
  <polygon class="cls-2" points="240.88 99.94 240.88 111.1 247.37 111.1 247.37 109.94 242.27 109.94 242.27 99.94 240.88 99.94"/>
  <polygon class="cls-2" points="249.57 99.94 249.57 101.11 253.33 101.11 253.33 111.1 254.72 111.1 254.72 101.11 258.47 101.11 258.47 99.94 249.57 99.94"/>
  <polygon class="cls-2" points="270.73 99.94 267.44 104.84 264.16 99.94 262.59 99.94 266.75 106.15 266.75 111.1 268.14 111.1 268.14 106.15 272.29 99.94 270.73 99.94"/>
  <path class="cls-2" d="m288.26,100.01l2.22,6.57h-4.43l2.22-6.57Zm-1.44-.06l-3.77,11.16h1.47l1.13-3.36h5.21l1.13,3.36h1.47l-3.77-11.16h-2.88Z"/>
  <path class="cls-2" d="m301.29,101.11h-1.67v8.83h1.67c1.37,0,2.44-.38,3.2-1.14.77-.76,1.15-1.85,1.15-3.28s-.38-2.52-1.15-3.28c-.77-.76-1.83-1.14-3.2-1.14m-3.06,10v-11.16h3.22c.88,0,1.68.14,2.39.41.7.28,1.3.66,1.79,1.15.49.49.87,1.08,1.13,1.76.26.68.39,1.44.39,2.26s-.13,1.57-.39,2.26c-.26.68-.63,1.27-1.13,1.76-.49.49-1.09.87-1.79,1.15-.71.27-1.5.41-2.39.41h-3.22Z"/>
  <polygon class="cls-2" points="319.8 99.94 316.06 111.04 312.32 99.94 310.85 99.94 314.62 111.1 317.5 111.1 321.27 99.94 319.8 99.94"/>
  <rect class="cls-2" x="326.02" y="99.94" width="1.39" height="11.16"/>
  <path class="cls-2" d="m338.37,104.81c1.04.24,1.83.62,2.37,1.15.54.53.82,1.28.82,2.25,0,.42-.1.82-.29,1.19-.2.37-.47.7-.84.97-.37.28-.82.49-1.34.66-.53.16-1.12.24-1.78.24-.73,0-1.38-.11-1.93-.34-.56-.23-1.02-.53-1.4-.91-.38-.38-.67-.81-.88-1.31-.21-.5-.33-1.01-.36-1.54h1.44c.02.4.12.78.28,1.13.17.36.38.67.66.93.27.26.59.47.95.63.37.16.76.23,1.18.23.82,0,1.49-.17,2.01-.52.52-.35.79-.81.79-1.39,0-.52-.17-.93-.52-1.25-.34-.31-.87-.56-1.58-.73l-1.51-.36c-1.15-.27-2.01-.66-2.58-1.16-.56-.51-.85-1.15-.85-1.93,0-.45.1-.86.31-1.24.21-.37.49-.69.85-.95.36-.26.77-.46,1.24-.6s.97-.21,1.5-.21c.69,0,1.3.09,1.82.27.52.18.96.43,1.32.75.36.31.63.68.84,1.11.2.43.33.88.37,1.35h-1.44c-.07-.66-.34-1.21-.83-1.65-.49-.44-1.16-.66-2.01-.66-.72,0-1.31.15-1.77.46-.46.31-.69.74-.69,1.3,0,.42.16.76.49,1.03.33.26.95.5,1.87.72l1.51.36Z"/>
  <path class="cls-2" d="m351.37,110.1c.55,0,1.05-.11,1.51-.34.46-.23.85-.54,1.17-.95.32-.4.57-.89.75-1.45.18-.56.27-1.18.27-1.84s-.09-1.28-.27-1.85c-.18-.56-.43-1.04-.75-1.45-.32-.4-.72-.72-1.17-.95-.46-.23-.96-.34-1.51-.34s-1.05.11-1.51.34c-.46.23-.85.54-1.17.95-.32.4-.57.89-.75,1.45-.18.56-.27,1.18-.27,1.85s.09,1.28.27,1.84c.18.56.43,1.04.75,1.45.32.4.72.72,1.17.95.46.23.96.34,1.51.34m0,1.16c-.77,0-1.47-.15-2.11-.45-.64-.3-1.19-.71-1.65-1.22-.46-.51-.82-1.12-1.07-1.82-.25-.7-.38-1.45-.38-2.25s.13-1.55.38-2.25c.25-.7.61-1.31,1.07-1.82.46-.51,1.01-.92,1.65-1.22.64-.3,1.34-.45,2.11-.45s1.47.15,2.11.45c.64.3,1.19.71,1.65,1.22.46.51.82,1.12,1.07,1.82.25.7.38,1.45.38,2.25s-.13,1.55-.38,2.25c-.25.7-.61,1.31-1.07,1.82-.46.51-1.01.92-1.65,1.22-.64.3-1.34.45-2.11.45"/>
  <path class="cls-2" d="m365.57,101.11h-2.23v4.13h2.23c.86,0,1.52-.18,1.96-.53.44-.36.66-.87.66-1.54s-.22-1.18-.66-1.53c-.44-.35-1.09-.53-1.96-.53m-3.62,10v-11.16h3.46c1.35,0,2.4.28,3.15.83s1.13,1.35,1.13,2.39c0,.79-.22,1.44-.67,1.96-.45.52-1.08.88-1.9,1.08l2.78,4.9h-1.6l-2.67-4.71h-2.3v4.71h-1.39Z"/>
  <path class="cls-2" d="m380,104.81c1.04.24,1.83.62,2.37,1.15.54.53.82,1.28.82,2.25,0,.42-.1.82-.29,1.19-.2.37-.47.7-.84.97-.37.28-.82.49-1.34.66-.53.16-1.12.24-1.78.24-.73,0-1.38-.11-1.93-.34-.56-.23-1.02-.53-1.4-.91-.38-.38-.67-.81-.88-1.31-.21-.5-.33-1.01-.36-1.54h1.44c.02.4.12.78.28,1.13.17.36.38.67.66.93.27.26.59.47.95.63.37.16.76.23,1.18.23.82,0,1.49-.17,2.01-.52.52-.35.79-.81.79-1.39,0-.52-.17-.93-.52-1.25-.34-.31-.87-.56-1.58-.73l-1.51-.36c-1.15-.27-2.01-.66-2.58-1.16-.56-.51-.85-1.15-.85-1.93,0-.45.1-.86.31-1.24.21-.37.49-.69.85-.95.36-.26.77-.46,1.24-.6s.97-.21,1.5-.21c.69,0,1.3.09,1.82.27.52.18.96.43,1.32.75.36.31.63.68.84,1.11.2.43.33.88.37,1.35h-1.44c-.07-.66-.34-1.21-.83-1.65-.49-.44-1.16-.66-2.01-.66-.72,0-1.31.15-1.77.46-.46.31-.69.74-.69,1.3,0,.42.16.76.49,1.03.33.26.95.5,1.87.72l1.51.36Z"/>
  <path class="cls-1" d="m3.03,31.34h36.06c3.39,0,6.14,2.75,6.14,6.15v71.87c0,3.39,2.11,4.38,4.71,2.2l28.05-23.45c2.6-2.18,4.68-6.69,4.68-10.09V6.15c0-3.39-2.75-6.15-6.15-6.15h-36.02c-3.39,0-8.25,1.76-10.86,3.94L1.6,27.39c-2.6,2.18-1.96,3.94,1.43,3.94M141.77,0c3.39,0,4.03,1.76,1.43,3.94l-28.06,23.45c-2.6,2.18-7.46,3.94-10.86,3.94h-9.57V6.15c0-3.39,2.75-6.15,6.14-6.15h40.9Z"/>
</svg>