<?xml version="1.0" encoding="utf-8"?>
<!-- Generator: Adobe Illustrator 27.8.1, SVG Export Plug-In . SVG Version: 6.00 Build 0)  -->
<svg version="1.1" id="Layer_1" xmlns="http://www.w3.org/2000/svg" xmlns:xlink="http://www.w3.org/1999/xlink" x="0px" y="0px"
	 viewBox="0 0 432.53 112.71" style="enable-background:new 0 0 432.53 112.71;" xml:space="preserve">
<style type="text/css">
	.st0{fill:#FFFFFF;}
	.st1{fill:#A8B6A5;}
</style>
<g>
	<polygon class="st0" points="181.55,22.99 181.55,16.83 228.67,16.83 228.67,22.99 208.79,22.99 208.79,75.93 201.43,75.93 
		201.43,22.99 	"/>
	<polygon class="st0" points="235.78,75.93 235.78,16.83 269.78,16.83 269.78,22.99 243.14,22.99 243.14,42.52 269.01,42.52 
		269.01,48.69 243.14,48.69 243.14,69.76 270.47,69.76 270.47,75.93 	"/>
	<polygon class="st0" points="275.82,22.99 275.82,16.83 322.93,16.83 322.93,22.99 303.06,22.99 303.06,75.93 295.69,75.93 
		295.69,22.99 	"/>
	<path class="st0" d="M349.23,22.99h-11.82v21.85h11.82c4.57,0,8.02-0.94,10.36-2.83c2.34-1.88,3.51-4.6,3.51-8.14
		c0-3.54-1.17-6.24-3.51-8.1C357.25,23.92,353.8,22.99,349.23,22.99 M330.04,75.93V16.83h18.33c7.14,0,12.71,1.47,16.7,4.41
		c4,2.94,6,7.15,6,12.63c0,4.17-1.18,7.62-3.55,10.37c-2.37,2.74-5.73,4.65-10.06,5.74l14.73,25.96h-8.48l-14.13-24.93h-0.6h-0.6
		h-10.96v24.93H330.04z"/>
	<path class="st0" d="M404.95,17.17l11.73,34.78h-23.47L404.95,17.17z M397.33,16.82l-19.96,59.11h7.8l5.99-17.82h27.59l6,17.82
		h7.79l-19.96-59.11H397.33z"/>
	<path class="st0" d="M205.11,101.11h-2.23v4.13h2.23c0.86,0,1.51-0.18,1.96-0.53c0.44-0.36,0.66-0.87,0.66-1.54
		c0-0.67-0.22-1.18-0.66-1.53C206.62,101.28,205.97,101.11,205.11,101.11 M201.48,111.1V99.94h3.46c1.35,0,2.4,0.28,3.15,0.83
		c0.75,0.56,1.13,1.35,1.13,2.39c0,0.79-0.22,1.44-0.67,1.96c-0.45,0.52-1.08,0.88-1.9,1.08l2.78,4.9h-1.6l-2.67-4.71h-0.11h-0.11
		h-2.07v4.71H201.48z"/>
	<polygon class="st0" points="214.67,99.94 214.67,111.1 221.23,111.1 221.23,109.94 216.06,109.94 216.06,105.96 220.95,105.96 
		220.95,104.79 216.06,104.79 216.06,101.11 221.1,101.11 221.1,99.94 	"/>
	<path class="st0" d="M230.92,100.01l2.22,6.57h-4.43L230.92,100.01z M229.48,99.94l-3.77,11.16h1.47l1.13-3.36h5.21l1.13,3.36h1.47
		l-3.77-11.16H229.48z"/>
	<polygon class="st0" points="240.88,99.94 240.88,111.1 247.37,111.1 247.37,109.94 242.27,109.94 242.27,99.94 	"/>
	<polygon class="st0" points="249.57,99.94 249.57,101.11 253.33,101.11 253.33,111.1 254.72,111.1 254.72,101.11 258.47,101.11 
		258.47,99.94 	"/>
	<polygon class="st0" points="270.73,99.94 267.44,104.84 264.16,99.94 262.59,99.94 266.75,106.15 266.75,111.1 268.14,111.1 
		268.14,106.15 272.29,99.94 	"/>
	<path class="st0" d="M288.26,100.01l2.22,6.57h-4.43L288.26,100.01z M286.82,99.94l-3.77,11.16h1.47l1.13-3.36h5.21l1.13,3.36h1.47
		l-3.77-11.16H286.82z"/>
	<path class="st0" d="M301.29,101.11h-1.67v8.83h1.67c1.37,0,2.44-0.38,3.2-1.14c0.77-0.76,1.15-1.85,1.15-3.28
		c0-1.42-0.38-2.52-1.15-3.28C303.72,101.49,302.65,101.11,301.29,101.11 M298.23,111.1V99.94h3.22c0.88,0,1.68,0.14,2.39,0.41
		c0.7,0.28,1.3,0.66,1.79,1.15c0.49,0.49,0.87,1.08,1.13,1.76c0.26,0.68,0.39,1.44,0.39,2.26c0,0.82-0.13,1.57-0.39,2.26
		c-0.26,0.68-0.63,1.27-1.13,1.76c-0.49,0.49-1.09,0.87-1.79,1.15c-0.71,0.27-1.5,0.41-2.39,0.41H298.23z"/>
	<polygon class="st0" points="319.8,99.94 316.06,111.04 312.32,99.94 310.85,99.94 314.62,111.1 317.5,111.1 321.27,99.94 	"/>
	<rect x="326.02" y="99.94" class="st0" width="1.39" height="11.16"/>
	<path class="st0" d="M338.37,104.81c1.04,0.24,1.83,0.62,2.37,1.15c0.54,0.53,0.82,1.28,0.82,2.25c0,0.42-0.1,0.82-0.29,1.19
		c-0.2,0.37-0.47,0.7-0.84,0.97c-0.37,0.28-0.82,0.49-1.34,0.66c-0.53,0.16-1.12,0.24-1.78,0.24c-0.73,0-1.38-0.11-1.93-0.34
		c-0.56-0.23-1.02-0.53-1.4-0.91c-0.38-0.38-0.67-0.81-0.88-1.31c-0.21-0.5-0.33-1.01-0.36-1.54h1.44c0.02,0.4,0.12,0.78,0.28,1.13
		c0.17,0.36,0.38,0.67,0.65,0.93c0.27,0.26,0.59,0.47,0.95,0.63c0.37,0.16,0.76,0.23,1.18,0.23c0.82,0,1.49-0.17,2.01-0.52
		c0.52-0.35,0.79-0.81,0.79-1.39c0-0.52-0.17-0.93-0.52-1.25c-0.34-0.31-0.87-0.56-1.58-0.73l-1.51-0.36
		c-1.15-0.27-2.01-0.66-2.58-1.16c-0.56-0.51-0.85-1.15-0.85-1.93c0-0.45,0.1-0.86,0.31-1.24c0.21-0.37,0.49-0.69,0.85-0.95
		c0.36-0.26,0.77-0.46,1.24-0.6c0.47-0.14,0.97-0.21,1.5-0.21c0.69,0,1.3,0.09,1.82,0.27s0.96,0.43,1.32,0.75
		c0.36,0.31,0.63,0.68,0.84,1.11c0.2,0.43,0.33,0.88,0.37,1.35h-1.44c-0.07-0.66-0.34-1.21-0.83-1.65
		c-0.49-0.44-1.16-0.66-2.01-0.66c-0.72,0-1.31,0.15-1.77,0.46c-0.46,0.31-0.69,0.74-0.69,1.3c0,0.42,0.16,0.76,0.49,1.03
		c0.33,0.26,0.95,0.5,1.87,0.72L338.37,104.81z"/>
	<path class="st0" d="M351.37,110.1c0.55,0,1.05-0.11,1.51-0.34c0.46-0.23,0.85-0.54,1.17-0.95c0.32-0.4,0.57-0.89,0.75-1.45
		c0.18-0.56,0.27-1.18,0.27-1.84c0-0.67-0.09-1.28-0.27-1.85c-0.18-0.56-0.43-1.04-0.75-1.45c-0.32-0.4-0.72-0.72-1.17-0.95
		c-0.46-0.23-0.96-0.34-1.51-0.34s-1.05,0.11-1.51,0.34c-0.46,0.23-0.85,0.54-1.17,0.95c-0.32,0.4-0.57,0.89-0.75,1.45
		c-0.18,0.56-0.27,1.18-0.27,1.85c0,0.67,0.09,1.28,0.27,1.84c0.18,0.56,0.43,1.04,0.75,1.45c0.32,0.4,0.72,0.72,1.17,0.95
		C350.31,109.99,350.82,110.1,351.37,110.1 M351.37,111.27c-0.77,0-1.47-0.15-2.11-0.45c-0.64-0.3-1.19-0.71-1.65-1.22
		s-0.82-1.12-1.07-1.82c-0.25-0.7-0.38-1.45-0.38-2.25c0-0.8,0.13-1.55,0.38-2.25c0.25-0.7,0.61-1.31,1.07-1.82
		c0.46-0.51,1.01-0.92,1.65-1.22c0.64-0.3,1.34-0.45,2.11-0.45c0.77,0,1.47,0.15,2.11,0.45c0.64,0.3,1.19,0.71,1.65,1.22
		c0.46,0.51,0.82,1.12,1.07,1.82c0.25,0.7,0.38,1.45,0.38,2.25c0,0.8-0.13,1.55-0.38,2.25c-0.25,0.7-0.61,1.31-1.07,1.82
		c-0.46,0.51-1.01,0.92-1.65,1.22C352.84,111.11,352.13,111.27,351.37,111.27"/>
	<path class="st0" d="M365.57,101.11h-2.23v4.13h2.23c0.86,0,1.52-0.18,1.96-0.53c0.44-0.36,0.66-0.87,0.66-1.54
		c0-0.67-0.22-1.18-0.66-1.53C367.08,101.28,366.43,101.11,365.57,101.11 M361.94,111.1V99.94h3.46c1.35,0,2.4,0.28,3.15,0.83
		c0.75,0.56,1.13,1.35,1.13,2.39c0,0.79-0.22,1.44-0.67,1.96c-0.45,0.52-1.08,0.88-1.9,1.08l2.78,4.9h-1.6l-2.67-4.71h-0.11h-0.11
		h-2.07v4.71H361.94z"/>
	<path class="st0" d="M380,104.81c1.04,0.24,1.83,0.62,2.37,1.15c0.54,0.53,0.82,1.28,0.82,2.25c0,0.42-0.1,0.82-0.29,1.19
		c-0.2,0.37-0.47,0.7-0.84,0.97c-0.37,0.28-0.82,0.49-1.34,0.66c-0.53,0.16-1.12,0.24-1.78,0.24c-0.73,0-1.38-0.11-1.93-0.34
		c-0.56-0.23-1.02-0.53-1.4-0.91c-0.38-0.38-0.67-0.81-0.88-1.31c-0.21-0.5-0.33-1.01-0.36-1.54h1.44c0.02,0.4,0.12,0.78,0.28,1.13
		c0.17,0.36,0.38,0.67,0.66,0.93c0.27,0.26,0.59,0.47,0.95,0.63c0.37,0.16,0.76,0.23,1.18,0.23c0.82,0,1.49-0.17,2.01-0.52
		c0.52-0.35,0.79-0.81,0.79-1.39c0-0.52-0.17-0.93-0.52-1.25c-0.34-0.31-0.87-0.56-1.58-0.73l-1.51-0.36
		c-1.15-0.27-2.01-0.66-2.58-1.16c-0.56-0.51-0.85-1.15-0.85-1.93c0-0.45,0.1-0.86,0.31-1.24c0.21-0.37,0.49-0.69,0.85-0.95
		c0.36-0.26,0.77-0.46,1.24-0.6c0.47-0.14,0.97-0.21,1.5-0.21c0.69,0,1.3,0.09,1.82,0.27s0.96,0.43,1.32,0.75
		c0.36,0.31,0.63,0.68,0.84,1.11c0.2,0.43,0.33,0.88,0.37,1.35h-1.44c-0.07-0.66-0.34-1.21-0.83-1.65
		c-0.49-0.44-1.16-0.66-2.01-0.66c-0.72,0-1.31,0.15-1.77,0.46c-0.46,0.31-0.69,0.74-0.69,1.3c0,0.42,0.16,0.76,0.49,1.03
		c0.33,0.26,0.95,0.5,1.87,0.72L380,104.81z"/>
	<path class="st1" d="M3.03,31.34h36.06c3.39,0,6.14,2.75,6.14,6.15v71.87c0,3.39,2.11,4.38,4.71,2.2L78,88.1
		c2.6-2.18,4.68-6.69,4.68-10.09V6.15c0-3.39-2.75-6.15-6.15-6.15H40.51c-3.39,0-8.25,1.76-10.86,3.94L1.6,27.39
		C-1,29.57-0.36,31.34,3.03,31.34 M141.77,0c3.39,0,4.03,1.76,1.43,3.94l-28.06,23.45c-2.6,2.18-7.46,3.94-10.86,3.94h-9.57V6.15
		c0-3.39,2.75-6.15,6.14-6.15H141.77z"/>
</g>
</svg>
